<?xml version="1.0" encoding="UTF-8"?>
<svg width="430px" height="154px" viewBox="0 0 430 154" version="1.1" xmlns="http://www.w3.org/2000/svg" xmlns:xlink="http://www.w3.org/1999/xlink">
    <!-- Generator: Sketch 53.2 (72643) - https://sketchapp.com -->
    <title>logo/paper-color</title>
    <desc>Created with Sketch.</desc>
    <g id="logo/paper-color" stroke="none" stroke-width="1" fill="none" fill-rule="evenodd">
        <g id="paper-color" fill="rgba(33, 0, 93, 1)" fill-rule="nonzero">
            <path d="M183.4283,50.4688 C172.4203,50.4688 165.1933,60.0318 165.1933,72.3738 C165.1933,84.9388 172.4203,94.3898 183.4283,94.3898 C194.5473,94.3898 201.8853,84.8268 201.8853,72.3738 C201.8853,59.9198 194.5473,50.4688 183.4283,50.4688 Z M158.6323,120.0738 L158.6323,45.9098 L165.1933,45.9098 L165.1933,56.4738 C167.7493,51.0258 173.9773,44.4648 184.5393,44.4648 C199.5503,44.4648 208.5573,56.6958 208.5573,72.3738 C208.5573,88.1628 199.2173,100.3938 184.3183,100.3938 C174.0873,100.3938 167.9723,94.2788 165.3043,88.9418 L165.3043,120.0738 L158.6323,120.0738 Z" id="Fill-1"></path>
            <path d="M254.4762,77.2657 L254.4762,71.2617 C254.1422,71.5957 252.6972,72.2627 250.5842,72.5957 L235.7962,74.8207 C229.5692,75.7087 225.6772,79.1567 225.6772,84.9387 C225.6772,89.8307 229.6802,94.6117 237.0192,94.6117 C247.1372,94.6117 254.4762,87.9407 254.4762,77.2657 M218.8952,85.2717 C218.8952,76.2657 225.1222,71.0387 234.7952,69.5937 L248.9162,67.4817 C253.4752,66.8147 254.4762,64.8127 254.4762,62.3667 C254.4762,55.3617 249.8062,50.3577 241.1332,50.3577 C232.6822,50.3577 227.1232,55.0287 226.2342,62.7007 L220.0072,61.3667 C221.2302,51.2467 229.6802,44.5767 241.0222,44.5767 C254.8092,44.5767 261.1472,52.9147 261.1472,63.0337 L261.1472,89.8307 C261.1472,94.0557 261.4812,96.7247 261.9252,98.9487 L255.3662,98.9487 C255.1432,97.7257 254.6992,94.1667 254.6992,89.8307 C252.2522,94.8337 245.9142,100.2827 236.2412,100.2827 C225.1222,100.2827 218.8952,92.9447 218.8952,85.2717" id="Fill-3"></path>
            <path d="M303.1754,50.4688 C292.1674,50.4688 284.9404,60.0318 284.9404,72.3738 C284.9404,84.9388 292.1674,94.3898 303.1754,94.3898 C314.2944,94.3898 321.6324,84.8268 321.6324,72.3738 C321.6324,59.9198 314.2944,50.4688 303.1754,50.4688 Z M278.3794,120.0738 L278.3794,45.9098 L284.9404,45.9098 L284.9404,56.4738 C287.4964,51.0258 293.7244,44.4648 304.2864,44.4648 C319.2974,44.4648 328.3044,56.6958 328.3044,72.3738 C328.3044,88.1628 318.9644,100.3938 304.0654,100.3938 C293.8344,100.3938 287.7194,94.2788 285.0514,88.9418 L285.0514,120.0738 L278.3794,120.0738 Z" id="Fill-5"></path>
            <path d="M381.2281,68.1485 C381.0051,58.2525 374.6671,50.4685 363.5481,50.4685 C353.6531,50.4685 346.5371,58.3635 345.8701,68.1485 L381.2281,68.1485 Z M387.9001,83.9375 C384.8971,92.9445 376.8921,100.3935 364.6611,100.3935 C350.6511,100.3935 338.8651,90.0525 338.8651,72.2625 C338.8651,55.5845 350.2061,44.4645 363.4381,44.4645 C379.1161,44.4645 388.1221,55.5845 388.2331,71.2615 C388.2331,72.1515 388.2331,72.8185 388.1221,73.7085 L345.6471,73.7085 L345.6471,74.1525 C345.7581,86.3835 354.2081,94.3895 364.6611,94.3895 C374.2231,94.3895 379.7831,88.8305 382.0061,81.8255 L387.9001,83.9375 Z" id="Fill-7"></path>
            <path d="M429.0367,52.8038 C427.8127,52.4708 426.1447,52.2478 424.3667,52.2478 C415.3597,52.2478 408.6887,58.0308 408.6887,70.1498 L408.6887,98.9488 L402.0167,98.9488 L402.0167,45.9098 L408.5777,45.9098 L408.5777,55.8068 C411.8027,48.4678 417.9177,45.2428 424.9227,45.2428 C426.7017,45.2428 428.1467,45.4658 429.0367,45.7988 L429.0367,52.8038 Z" id="Fill-9"></path>
            <path d="M110.0567,25.7804 L99.4357,64.8604 C99.3337,64.6354 99.2217,64.4154 99.1107,64.1934 C98.9177,63.7904 98.7147,63.3904 98.4897,63.0024 C95.8427,58.4154 91.6887,55.0514 86.7147,53.3754 C86.2767,53.2274 85.8427,53.0714 85.3917,52.9514 C85.2567,52.9154 85.1207,52.8964 84.9857,52.8634 C79.5437,51.5134 73.8917,52.2944 69.0217,55.1054 L7.0167,90.9054 L19.3657,45.5664 L85.7377,7.2474 C93.6517,2.6764 103.8057,5.3994 108.3747,13.3124 C110.5717,17.1174 111.1667,21.5534 110.0567,25.7804 Z M88.0657,88.1564 L69.2727,99.3364 L35.4867,119.2464 L48.2547,72.8704 L71.5217,59.4364 C72.4797,58.8834 73.4777,58.4304 74.5027,58.0824 C77.1207,57.1924 79.9127,56.9844 82.6647,57.4704 C83.1437,57.5554 83.6217,57.6534 84.0977,57.7814 C88.3727,58.9264 91.9467,61.6694 94.1597,65.5024 L94.1667,65.5164 C95.8967,68.5224 96.6187,72.9904 96.0457,76.9874 C95.1177,81.6894 92.2587,85.7354 88.0657,88.1564 Z M56.1247,145.6854 L35.4887,125.0494 L63.7467,108.3964 L66.5477,106.7464 L56.1247,145.6854 Z M112.7047,10.8124 C106.7587,0.5114 93.5377,-3.0316 83.2377,2.9174 L15.9737,41.7514 C15.4027,42.0814 14.9857,42.6234 14.8117,43.2594 L0.5967,95.4484 C0.3307,96.4264 0.6807,97.4684 1.4827,98.0864 C1.9307,98.4304 2.4687,98.6054 3.0097,98.6054 C3.4387,98.6054 3.8707,98.4954 4.2587,98.2704 L42.0887,76.4284 L29.0277,123.8704 C28.9977,123.9754 28.9797,124.0824 28.9647,124.1884 C28.9637,124.1984 28.9587,124.2084 28.9577,124.2184 C28.9567,124.2214 28.9577,124.2244 28.9577,124.2274 C28.9357,124.3964 28.9377,124.5664 28.9517,124.7334 C28.9547,124.7724 28.9587,124.8104 28.9637,124.8494 C28.9847,125.0164 29.0167,125.1804 29.0717,125.3394 C29.0737,125.3454 29.0767,125.3504 29.0787,125.3564 C29.1327,125.5104 29.2047,125.6574 29.2877,125.7994 C29.3067,125.8304 29.3247,125.8604 29.3437,125.8904 C29.4357,126.0334 29.5397,126.1684 29.6607,126.2914 C29.6647,126.2944 29.6667,126.2994 29.6697,126.3014 L55.6517,152.2834 C56.1267,152.7594 56.7647,153.0154 57.4197,153.0154 C57.6357,153.0154 57.8527,152.9874 58.0667,152.9304 C58.9297,152.6994 59.6037,152.0254 59.8347,151.1624 L72.6937,103.1194 L90.5947,92.4694 C95.9107,89.3994 99.5237,83.7374 101.2617,77.1964 C101.2737,77.1584 101.2857,77.1204 101.2957,77.0824 L114.8867,27.0754 C116.3397,21.5414 115.5647,15.7654 112.7047,10.8124 Z" id="Fill-11"></path>
        </g>
    </g>
</svg>
